<svg width="37" height="25" viewBox="0 0 37 25" fill="none" xmlns="http://www.w3.org/2000/svg">
<g clip-path="url(#clip0)">
<path d="M20.7306 17.0868C20.7867 17.214 20.8793 17.3222 20.9969 17.3983C21.1146 17.4743 21.2523 17.5148 21.393 17.5148C21.5338 17.5148 21.6714 17.4743 21.7891 17.3983C21.9068 17.3222 21.9994 17.214 22.0555 17.0868L26.3686 7.4375L26.573 6.97916C28.2175 3.33101 29.0397 1.17245 29.0397 0.503468C29.0373 0.469401 29.0314 0.435659 29.0221 0.40277C29.0186 0.368132 29.0186 0.333236 29.0221 0.298597C29.6986 0.333319 30.3083 0.357625 30.8545 0.374986C31.4007 0.392348 31.8834 0.40277 32.3063 0.40277C32.7291 0.40277 33.1731 0.402764 33.6982 0.374986C34.0083 0.374986 34.3325 0.354158 34.6743 0.336797C34.8671 0.334008 35.0533 0.406605 35.1919 0.538701C35.3306 0.670796 35.4106 0.851634 35.4143 1.04166V1.45833H35.2064C34.208 1.45833 33.522 1.62847 33.1485 1.96875C32.7749 2.30902 32.5893 2.91319 32.5917 3.78125C32.5917 4.12152 32.614 4.87846 32.6586 6.05207C32.7045 7.22916 32.7644 8.49999 32.8313 9.87152L33.1238 14.6354L33.1414 15.0937C33.3951 19.3183 33.5901 21.7083 33.7264 22.2639C33.7648 22.4314 33.8425 22.5878 33.9533 22.7204C34.064 22.853 34.2047 22.9583 34.3642 23.0278C34.8053 23.2278 35.2886 23.3206 35.7737 23.2986H36.2036V23.7361C36.2032 23.8326 36.1831 23.928 36.1445 24.0166C36.1059 24.1053 36.0495 24.1854 35.9788 24.2522C35.9081 24.3189 35.8245 24.3709 35.733 24.4052C35.6414 24.4394 35.5438 24.4551 35.446 24.4514C34.8223 24.4236 34.2338 24.3993 33.6841 24.3854C32.9053 24.3611 32.2746 24.3507 31.746 24.3507C31.1434 24.3507 30.4633 24.3507 29.7057 24.3854C29.1771 24.3854 28.6239 24.4201 28.0425 24.4479C27.9445 24.4526 27.8466 24.4377 27.7547 24.4041C27.6627 24.3704 27.5786 24.3188 27.5075 24.2523C27.4364 24.1858 27.3797 24.1057 27.3408 24.017C27.3019 23.9283 27.2817 23.8327 27.2813 23.7361V23.2639C27.3835 23.2639 27.5174 23.2639 27.676 23.2812C27.8346 23.2986 27.9544 23.2986 28.0284 23.2986C28.8999 23.2986 29.5048 23.1458 29.8431 22.8403C30.1814 22.5347 30.3353 21.9815 30.3047 21.1805C30.3047 20.8055 30.3048 20.441 30.2871 20.0764C30.2695 19.7118 30.2589 19.3437 30.2378 18.9583L29.7092 7.46179C29.7124 7.29212 29.6543 7.12685 29.5452 6.99552C29.4361 6.86419 29.2832 6.77535 29.1138 6.74488C28.9443 6.71442 28.7694 6.7443 28.6203 6.8292C28.4712 6.9141 28.3575 7.04848 28.2997 7.20833L22.4925 20.3646C22.4925 20.3889 22.4608 20.441 22.4255 20.5173C21.9523 21.4831 21.5849 22.4957 21.3296 23.5382C21.2931 23.6959 21.2037 23.8369 21.0758 23.9384C20.9479 24.0398 20.789 24.0958 20.6248 24.0972C20.4676 24.1034 20.3127 24.0575 20.185 23.9669C20.0573 23.8763 19.964 23.7461 19.9201 23.5972C19.6189 22.6713 19.2659 21.7625 18.8629 20.875L18.796 20.7222L13.1086 7.95833C13.0429 7.81189 12.9293 7.69138 12.7859 7.61611C12.6425 7.54084 12.4776 7.51515 12.3176 7.54315C12.1576 7.57116 12.0118 7.65124 11.9035 7.77058C11.7952 7.88992 11.7306 8.04161 11.7202 8.20138C11.6802 8.82406 11.6403 9.49999 11.6004 10.2292C11.2785 15.4722 11.1176 18.7546 11.1176 20.0764V20.2465C11.1176 21.684 11.2809 22.5521 11.6074 22.8507C11.934 23.1493 12.6023 23.2986 13.6125 23.2986H13.9648V23.7292C13.965 23.8261 13.9451 23.922 13.9064 24.0111C13.8678 24.1003 13.8111 24.1807 13.7399 24.2476C13.6687 24.3145 13.5845 24.3665 13.4923 24.4003C13.4001 24.4341 13.3019 24.4491 13.2037 24.4444C12.728 24.4201 12.2664 24.3993 11.8224 24.3854C11.1387 24.3611 10.4763 24.3507 9.83494 24.3507C9.37332 24.3507 8.80598 24.3507 8.12236 24.3854C7.66779 24.3854 7.19207 24.4201 6.69169 24.4444C6.59491 24.4496 6.49807 24.4356 6.40687 24.4032C6.31567 24.3709 6.23197 24.3209 6.1607 24.2562C6.08943 24.1914 6.03203 24.1133 5.9919 24.0264C5.95177 23.9394 5.92972 23.8455 5.92703 23.75V23.2986H6.40979C6.90888 23.3257 7.40795 23.2451 7.87217 23.0625C8.21492 22.881 8.48281 22.5876 8.62979 22.2326C8.84826 21.7697 9.07145 19.8924 9.29932 16.6007C9.35923 15.6979 9.40855 14.9792 9.45436 14.4479L9.76446 10.3472V10.2951C10.0746 6.23726 10.2296 3.93171 10.2296 3.37847C10.2296 2.66666 10.0534 2.17013 9.70456 1.88541C9.3557 1.60068 8.69322 1.46179 7.71712 1.46179H7.44227V0.291656C7.53389 0.291656 7.68189 0.291663 7.8898 0.309024C9.2218 0.388885 10.1486 0.427078 10.6771 0.427078C11.0788 0.427078 11.84 0.395825 12.9641 0.326381C13.3165 0.305548 13.5913 0.291656 13.7746 0.291656V0.39583C13.7746 1.39814 15.7162 6.14351 19.5994 14.6319L20.7306 17.0868Z" fill="#D1A229"/>
<path d="M14.9022 17.2188C14.9594 17.3447 15.0524 17.4516 15.17 17.5267C15.2875 17.6017 15.4246 17.6416 15.5647 17.6416C15.7047 17.6416 15.8418 17.6017 15.9593 17.5267C16.0769 17.4516 16.1699 17.3447 16.2271 17.2188L20.5403 7.56945L20.7482 7.11112C22.3926 3.45834 23.2148 1.29977 23.2148 0.635417C23.2144 0.600013 23.2084 0.564889 23.1972 0.531255C23.1936 0.497784 23.1936 0.464028 23.1972 0.430557C23.8738 0.465279 24.4834 0.489585 25.0261 0.506947C25.5687 0.524308 26.055 0.531255 26.4779 0.531255C26.9007 0.531255 27.3447 0.531252 27.8874 0.506947L28.8635 0.468757C28.9615 0.464066 29.0594 0.478973 29.1513 0.512594C29.2433 0.546216 29.3273 0.597854 29.3985 0.664377C29.4696 0.7309 29.5263 0.810931 29.5652 0.899648C29.6041 0.988366 29.6243 1.08392 29.6246 1.18056V1.60069H29.4167C28.4183 1.60069 27.7335 1.76968 27.3624 2.10765C26.9912 2.44561 26.7974 3.04862 26.7809 3.91667C26.7809 4.26389 26.8056 5.0139 26.8514 6.18751C26.8972 7.36112 26.9536 8.63542 27.0241 10.007L27.3165 14.7708V15.2292C27.5703 19.4537 27.7664 21.8438 27.905 22.3993C27.9421 22.5669 28.0189 22.7235 28.1291 22.8563C28.2393 22.9891 28.3799 23.0942 28.5393 23.1632C28.9806 23.3627 29.4638 23.4555 29.9488 23.434H30.3787V23.8715C30.3789 23.9683 30.359 24.0641 30.3203 24.153C30.2816 24.242 30.2249 24.3222 30.1537 24.3889C30.0824 24.4555 29.9981 24.5071 29.906 24.5405C29.8138 24.574 29.7157 24.5885 29.6176 24.5833C28.9974 24.5556 28.4089 24.5347 27.8557 24.5174C27.0769 24.4965 26.4285 24.4861 25.9176 24.4861C25.3115 24.4861 24.6314 24.4965 23.8773 24.5174C23.3452 24.5174 22.792 24.5556 22.2106 24.5833C22.1126 24.5876 22.0148 24.5722 21.923 24.5381C21.8313 24.5041 21.7474 24.4521 21.6766 24.3852C21.6058 24.3184 21.5495 24.2381 21.5111 24.1492C21.4726 24.0603 21.4528 23.9647 21.4529 23.8681V23.3993C21.5551 23.3993 21.6855 23.3993 21.8476 23.4167C22.0097 23.434 22.1225 23.434 22.2 23.434C23.0692 23.434 23.6741 23.2813 24.0147 22.9757C24.3554 22.6701 24.5245 22.1169 24.5222 21.316C24.5222 20.941 24.5222 20.5729 24.5046 20.2118C24.4869 19.8507 24.4764 19.4792 24.4517 19.0938L23.9231 7.59375C23.9156 7.4321 23.8527 7.27773 23.7446 7.15588C23.6365 7.03402 23.4897 6.95188 23.3282 6.92286C23.1666 6.89385 22.9998 6.91967 22.8551 6.99612C22.7103 7.07256 22.5961 7.19511 22.5312 7.34375L16.6993 20.4861L16.6288 20.6389C16.1568 21.6047 15.7906 22.6174 15.5365 23.6597C15.4987 23.8165 15.4089 23.9564 15.2811 24.0571C15.1534 24.1577 14.9952 24.2134 14.8317 24.2153C14.6744 24.2214 14.5196 24.1756 14.3919 24.085C14.2641 23.9943 14.1709 23.8642 14.1269 23.7153C13.8262 22.7903 13.4732 21.8827 13.0698 20.9965L12.9993 20.8438L7.28017 8.0764C7.21432 7.92979 7.10038 7.80924 6.95667 7.73408C6.81295 7.65893 6.64777 7.63353 6.48765 7.66196C6.32752 7.69039 6.18174 7.77101 6.07368 7.89088C5.96562 8.01074 5.90157 8.16289 5.89179 8.32292C5.85655 8.94561 5.81662 9.62037 5.77198 10.3472C5.44779 15.6019 5.28569 18.8889 5.28569 20.2083V20.3785C5.28569 21.8113 5.45014 22.6794 5.77903 22.9826C6.10791 23.2859 6.77626 23.4352 7.78407 23.4306H8.13646V23.8611C8.13677 23.9572 8.11685 24.0523 8.07797 24.1404C8.03908 24.2284 7.98205 24.3076 7.91052 24.3729C7.83898 24.4382 7.75449 24.4881 7.66236 24.5195C7.57024 24.551 7.47249 24.5632 7.37531 24.5556C6.90312 24.5313 6.44151 24.5139 5.99398 24.4965C5.31036 24.4757 4.64788 24.4653 4.00655 24.4653C3.54845 24.4653 2.9776 24.4757 2.29398 24.4965L0.866834 24.559C0.768296 24.5642 0.669721 24.5496 0.577127 24.516C0.484532 24.4823 0.399871 24.4305 0.328305 24.3635C0.256738 24.2966 0.199769 24.216 0.160889 24.1266C0.12201 24.0372 0.102033 23.941 0.102174 23.8438V23.4132H0.581407C1.08162 23.4399 1.58175 23.3593 2.04731 23.1771C2.38917 22.9939 2.65576 22.6993 2.80141 22.3438C3.01989 21.8808 3.24423 20.0046 3.47445 16.7153C3.53083 15.8125 3.58252 15.0949 3.6295 14.5625L3.9396 10.4583V10.4167C4.24969 6.3588 4.40356 4.05324 4.40121 3.5C4.40121 2.78819 4.22856 2.2882 3.8797 2.00695C3.53084 1.7257 2.86484 1.58334 1.89226 1.58334H1.61388V0.4132C1.7055 0.4132 1.85703 0.4132 2.06141 0.4132C3.39341 0.494219 4.32252 0.533569 4.84875 0.531255C5.25046 0.531255 6.01395 0.497687 7.13922 0.430557C7.4916 0.406252 7.76293 0.395844 7.94617 0.395844V0.49653C7.94617 1.50347 9.88896 6.24885 13.7746 14.7326L14.9022 17.2188Z" fill="#D1A229"/>
<path d="M158.571 23.6842H0V25H158.571V23.6842Z" fill="#D1A229"/>
<path d="M158.571 0H0V1.31579H158.571V0Z" fill="#D1A229"/>
</g>
<defs>
<clipPath id="clip0">
<rect width="37" height="25" fill="white"/>
</clipPath>
</defs>
</svg>
