<svg width="194" height="131" viewBox="0 0 194 131" fill="none" xmlns="http://www.w3.org/2000/svg">
<g clip-path="url(#clip0)">
<path d="M108.695 89.5348C108.99 90.2012 109.475 90.7684 110.092 91.1669C110.709 91.5653 111.431 91.7775 112.169 91.7775C112.907 91.7775 113.629 91.5653 114.246 91.1669C114.863 90.7684 115.348 90.2012 115.642 89.5348L138.257 38.9725L139.329 36.5708C147.951 17.4545 152.262 6.14364 152.262 2.63818C152.25 2.45967 152.219 2.28286 152.17 2.11053C152.152 1.92902 152.152 1.74616 152.17 1.56466C155.717 1.7466 158.914 1.87397 161.777 1.96494C164.641 2.05591 167.172 2.11053 169.39 2.11053C171.607 2.11053 173.935 2.11049 176.688 1.96494C178.314 1.96494 180.013 1.8558 181.806 1.76483C182.817 1.75021 183.793 2.13062 184.52 2.8228C185.247 3.51498 185.666 4.46257 185.686 5.4583V7.64165H184.596C179.361 7.64165 175.764 8.53318 173.805 10.3162C171.847 12.0993 170.874 15.2651 170.886 19.8137C170.886 21.5968 171.003 25.5631 171.237 31.7129C171.477 37.8808 171.792 44.5399 172.143 51.7268L173.676 76.6895L173.768 79.0912C175.099 101.228 176.121 113.752 176.836 116.663C177.037 117.541 177.445 118.36 178.025 119.055C178.606 119.75 179.344 120.302 180.18 120.666C182.493 121.713 185.027 122.2 187.57 122.085H189.824V124.377C189.822 124.883 189.717 125.383 189.514 125.847C189.312 126.312 189.016 126.732 188.646 127.081C188.275 127.431 187.837 127.704 187.357 127.883C186.877 128.062 186.365 128.145 185.852 128.125C182.582 127.98 179.496 127.852 176.614 127.78C172.531 127.652 169.223 127.598 166.452 127.598C163.292 127.598 159.727 127.598 155.754 127.78C152.983 127.78 150.082 127.961 147.033 128.107C146.52 128.132 146.007 128.053 145.524 127.877C145.042 127.701 144.602 127.431 144.229 127.082C143.856 126.733 143.558 126.314 143.354 125.849C143.151 125.384 143.044 124.884 143.043 124.377V121.903C143.578 121.903 144.281 121.903 145.112 121.994C145.943 122.085 146.572 122.085 146.96 122.085C151.529 122.085 154.701 121.284 156.475 119.683C158.248 118.082 159.055 115.183 158.895 110.986C158.895 109.021 158.895 107.111 158.803 105.2C158.71 103.29 158.655 101.361 158.544 99.3416L155.773 39.0998C155.789 38.2107 155.485 37.3447 154.913 36.6565C154.341 35.9684 153.539 35.5029 152.651 35.3432C151.762 35.1836 150.845 35.3402 150.063 35.785C149.281 36.2299 148.685 36.934 148.382 37.7716L117.933 106.71C117.933 106.838 117.767 107.111 117.582 107.511C115.101 112.571 113.175 117.878 111.836 123.34C111.645 124.167 111.176 124.905 110.506 125.437C109.835 125.969 109.002 126.262 108.141 126.269V126.269C107.316 126.302 106.505 126.061 105.835 125.586C105.165 125.112 104.676 124.43 104.446 123.649C102.866 118.798 101.016 114.036 98.903 109.385L98.5519 108.584L68.7314 41.7017C68.3871 40.9343 67.7913 40.3028 67.0394 39.9084C66.2875 39.514 65.4229 39.3794 64.5841 39.5261C63.7454 39.6729 62.9808 40.0925 62.4129 40.7179C61.845 41.3432 61.5066 42.138 61.4517 42.9752C61.2423 46.2381 61.033 49.7799 60.8236 53.6008C59.1361 81.0744 58.2923 98.2742 58.2923 105.2V106.092C58.2923 113.624 59.1484 118.173 60.8605 119.738C62.5726 121.302 66.0769 122.085 71.3734 122.085H73.2211V124.341C73.2217 124.849 73.1174 125.351 72.9147 125.818C72.712 126.285 72.415 126.707 72.0418 127.058C71.6685 127.408 71.2268 127.68 70.7435 127.858C70.2602 128.035 69.7453 128.113 69.2302 128.089C66.7359 127.961 64.3155 127.852 61.9875 127.78C58.4031 127.652 54.9296 127.598 51.567 127.598C49.1466 127.598 46.1719 127.598 42.5875 127.78C40.2041 127.78 37.7098 127.961 35.0862 128.089C34.5787 128.116 34.0709 128.042 33.5928 127.873C33.1146 127.703 32.6757 127.441 32.3021 127.102C31.9284 126.763 31.6274 126.354 31.417 125.898C31.2066 125.443 31.0909 124.95 31.0769 124.45V122.085H33.6081C36.2249 122.226 38.8417 121.804 41.2757 120.847C43.0728 119.897 44.4774 118.359 45.2481 116.499C46.3936 114.073 47.5638 104.236 48.7586 86.9876C49.0727 82.257 49.3313 78.4908 49.5715 75.707L51.1974 54.2194V53.9465C52.8233 32.6832 53.6363 20.6022 53.6363 17.7032C53.6363 13.9733 52.7125 11.3715 50.8834 9.87953C49.0542 8.38759 45.5807 7.65981 40.4628 7.65981H39.0216V1.52829C39.502 1.52829 40.278 1.52832 41.3681 1.6193C48.3521 2.03777 53.2113 2.2379 55.9827 2.2379C58.089 2.2379 62.0799 2.07413 67.9738 1.71025C69.8215 1.60108 71.2626 1.52829 72.2233 1.52829V2.07416C72.2233 7.32629 82.4037 32.192 102.764 76.6714L108.695 89.5348Z" fill="#D1A229"/>
<path d="M78.1357 90.2263C78.4359 90.8862 78.9235 91.4466 79.5399 91.8398C80.1562 92.2329 80.8749 92.4421 81.6092 92.4421C82.3436 92.4421 83.0622 92.2329 83.6786 91.8398C84.2949 91.4466 84.7825 90.8862 85.0827 90.2263L107.698 39.6639L108.788 37.2623C117.41 18.1217 121.721 6.81079 121.721 3.32958C121.719 3.14407 121.687 2.96002 121.629 2.78377C121.61 2.60839 121.61 2.4315 121.629 2.25612C125.176 2.43806 128.372 2.56543 131.218 2.6564C134.063 2.74737 136.613 2.78377 138.83 2.78377C141.047 2.78377 143.375 2.78376 146.22 2.6564L151.338 2.45629C151.852 2.4317 152.365 2.50982 152.847 2.68599C153.329 2.86217 153.77 3.13276 154.143 3.48133C154.516 3.82991 154.814 4.24928 155.017 4.71416C155.221 5.17904 155.327 5.67976 155.329 6.18613V8.38764H154.239C149.004 8.38764 145.414 9.27314 143.467 11.0441C141.521 12.815 140.505 15.9747 140.419 20.5234C140.419 22.3428 140.548 26.2728 140.788 32.4225C141.029 38.5723 141.324 45.2496 141.694 52.4364L143.227 77.3992V79.8008C144.558 101.937 145.586 114.461 146.313 117.372C146.507 118.251 146.91 119.071 147.488 119.767C148.066 120.463 148.803 121.014 149.639 121.375C151.952 122.42 154.486 122.907 157.029 122.794H159.283V125.087C159.284 125.594 159.18 126.096 158.977 126.562C158.774 127.028 158.476 127.449 158.103 127.798C157.729 128.147 157.287 128.417 156.804 128.592C156.321 128.768 155.806 128.844 155.292 128.817C152.04 128.671 148.955 128.562 146.054 128.471C141.971 128.362 138.571 128.307 135.892 128.307C132.714 128.307 129.148 128.362 125.195 128.471C122.405 128.471 119.504 128.671 116.455 128.817C115.942 128.839 115.429 128.758 114.948 128.58C114.467 128.401 114.027 128.129 113.656 127.779C113.285 127.428 112.989 127.008 112.788 126.542C112.586 126.076 112.482 125.575 112.483 125.069V122.612C113.019 122.612 113.702 122.612 114.552 122.703C115.402 122.794 115.993 122.794 116.4 122.794C120.957 122.794 124.129 121.994 125.915 120.393C127.701 118.792 128.588 115.893 128.576 111.696C128.576 109.731 128.576 107.802 128.483 105.91C128.391 104.018 128.336 102.071 128.206 100.051L125.435 39.7913C125.395 38.9442 125.065 38.1353 124.499 37.4968C123.932 36.8583 123.162 36.4279 122.315 36.2758C121.468 36.1237 120.594 36.2591 119.835 36.6597C119.076 37.0602 118.477 37.7024 118.137 38.4813L87.5586 107.347L87.189 108.148C84.7139 113.209 82.7938 118.515 81.4614 123.977C81.2636 124.799 80.7924 125.532 80.1228 126.059C79.4532 126.587 78.6236 126.878 77.7662 126.888V126.888C76.9416 126.92 76.1298 126.68 75.4601 126.205C74.7904 125.73 74.3013 125.048 74.0709 124.268C72.4939 119.421 70.6434 114.665 68.5281 110.022L68.1586 109.221L38.1717 42.3203C37.8264 41.5521 37.229 40.9204 36.4755 40.5266C35.7219 40.1328 34.8559 39.9997 34.0163 40.1487C33.1767 40.2977 32.4123 40.7201 31.8458 41.3482C31.2792 41.9763 30.9433 42.7735 30.8921 43.6121C30.7073 46.875 30.4979 50.4107 30.2639 54.2194C28.5641 81.7537 27.7142 98.9778 27.7142 105.892V106.783C27.7142 114.291 28.5764 118.84 30.3008 120.429C32.0253 122.018 35.5296 122.8 40.8138 122.776H42.6614V125.032C42.663 125.536 42.5586 126.034 42.3547 126.495C42.1508 126.957 41.8518 127.372 41.4768 127.714C41.1017 128.056 40.6586 128.318 40.1756 128.482C39.6926 128.647 39.1801 128.711 38.6705 128.671C36.1947 128.544 33.7744 128.453 31.4279 128.362C27.8435 128.253 24.37 128.198 21.0073 128.198C18.6054 128.198 15.6123 128.253 12.0279 128.362L4.54501 128.689C4.02835 128.717 3.5115 128.64 3.026 128.464C2.54051 128.287 2.09661 128.016 1.72137 127.665C1.34613 127.314 1.04743 126.892 0.843571 126.423C0.639714 125.955 0.534971 125.451 0.535709 124.941V122.685H3.04844C5.67118 122.825 8.2935 122.403 10.7345 121.448C12.527 120.488 13.9248 118.944 14.6885 117.081C15.834 114.655 17.0103 104.824 18.2174 87.5881C18.513 82.8576 18.784 79.0973 19.0303 76.3075L20.6562 54.8017V54.5834C22.2822 33.3201 23.0889 21.239 23.0766 18.34C23.0766 14.6101 22.1713 11.9902 20.3422 10.5164C18.513 9.04266 15.021 8.29669 9.92159 8.29669H8.46195V2.16517C8.94233 2.16517 9.73685 2.16517 10.8085 2.16517C17.7925 2.58971 22.664 2.7959 25.4231 2.78377C27.5294 2.78377 31.5326 2.60788 37.4327 2.25612C39.2803 2.12876 40.7029 2.07422 41.6637 2.07422V2.60182C41.6637 7.87821 51.8502 32.7439 72.2233 77.199L78.1357 90.2263Z" fill="#D1A229"/>
<path d="M831.429 124.105H0V131H831.429V124.105Z" fill="#D1A229"/>
<path d="M831.429 0H0V6.89474H831.429V0Z" fill="#D1A229"/>
</g>
<defs>
<clipPath id="clip0">
<rect width="194" height="131" fill="white"/>
</clipPath>
</defs>
</svg>
